<svg xmlns="http://www.w3.org/2000/svg" xmlns:xlink="http://www.w3.org/1999/xlink" width="845" zoomAndPan="magnify" viewBox="0 0 633.75 112.499997" height="150" preserveAspectRatio="xMidYMid meet" version="1.0"><defs><clipPath id="ffe5f1db9e"><path d="M 2 45 L 632 45 L 632 68.640625 L 2 68.640625 Z M 2 45 " clip-rule="nonzero"/></clipPath></defs><g clip-path="url(#ffe5f1db9e)"><path fill="#6da7cc" d="M 629.710938 64.882812 C 609.75 61.554688 589.609375 59.683594 569.402344 57.839844 C 549.046875 55.988281 528.691406 54.359375 508.335938 52.953125 C 467.960938 50.15625 427.539062 48.148438 387.070312 46.929688 C 305.71875 44.484375 224.351562 45.25 142.964844 49.234375 C 97.222656 51.515625 51.574219 54.828125 6.015625 59.179688 C 3.359375 59.4375 1.292969 62.960938 4.449219 64.164062 C 8.851562 65.851562 14.046875 66.203125 18.835938 66.410156 C 23.835938 66.613281 28.609375 66.648438 33.5625 65.902344 C 35.011719 65.675781 34.371094 63.839844 32.960938 64.019531 C 28.488281 64.566406 23.664062 64.761719 19.222656 63.875 C 18.710938 63.773438 18.203125 63.652344 17.695312 63.519531 C 94.773438 56.851562 172.074219 52.921875 249.601562 51.726562 C 330.578125 50.589844 411.5 52.625 492.371094 57.835938 C 515.210938 59.308594 538.027344 61.027344 560.820312 62.992188 C 583.578125 64.929688 606.261719 67.429688 629.09375 68.628906 C 631.574219 68.726562 632.152344 65.285156 629.710938 64.882812 Z M 629.710938 64.882812 " fill-opacity="1" fill-rule="nonzero"/></g></svg>